<svg xmlns="http://www.w3.org/2000/svg" width="225.81" height="30.03" viewBox="0 0 225.81 30.03">
	<style type="text/css">
		.st1{fill:#636466;}
		.st0{fill:#ffffff;}
	</style>
	<path class="st0" d="M0,13.17L3.49,16.66L6.98,13.17L3.49,9.67Z"/>
	<path class="st0" d="M222.11,13.18L218.62,16.67L215.12,13.18L218.61,9.68Z"/>
	<path class="st1" d="M28.6,13.29L29.87,13.29L29.87,8.2L31.87,8.2L31.87,6.93L28.6,6.93Z"/>
	<path class="st1" d="M37.7,14.23L37.7,6.47C37.7,5.38 37.05,4.44 36.13,3.99C36.32,4.35 36.43,4.76 36.43,5.2L36.43,12.95C36.43,13.82 36.05,14.57 35.41,15.1C35.97,15.7 36.43,16.38 36.43,17.36L36.43,25.98C36.43,27.48 35.15,28.76 33.64,28.76L25.35,28.76L25.35,30.04L34.92,30.04C36.42,30.04 37.7,28.76 37.7,27.25L37.7,18.63C37.7,17.65 37.25,16.97 36.68,16.37C37.32,15.85 37.7,15.09 37.7,14.23"/>
	<path class="st1" d="M28.6,24.21L29.87,24.21L29.87,19.08L31.87,19.08L31.87,17.81L28.6,17.81Z"/>
	<path class="st1" d="M48.77,24.21L50.05,24.21L50.05,8.2L52.05,8.2L52.05,6.93L48.77,6.93Z"/>
	<path class="st1" d="M56.31,3.99C56.49,4.35 56.6,4.76 56.6,5.2L56.6,25.98C56.6,27.48 55.32,28.76 53.82,28.76L47.04,28.76C46.61,28.76 46.2,28.65 45.83,28.47C46.28,29.38 47.22,30.03 48.32,30.03L55.09,30.03C56.6,30.03 57.88,28.76 57.88,27.25L57.88,6.47C57.88,5.38 57.22,4.44 56.31,3.99"/>
	<path class="st1" d="M68.95,13.29L70.22,13.29L70.22,8.2L72.22,8.2L72.22,6.93L68.95,6.93Z"/>
	<path class="st1" d="M76.43,18.82C77.41,18.37 78.01,17.39 78.01,16.33L78.01,6.47C78.01,5.36 77.37,4.42 76.45,3.97C76.63,4.34 76.74,4.75 76.74,5.2L76.74,15.06C76.74,16.11 76.14,17.09 75.16,17.54L77.04,28.76L73.58,28.76L73.8,30.03L78.31,30.03Z"/>
	<path class="st1" d="M70.68,17.81L68.95,17.81L68.95,28.76L65.71,28.76L65.71,30.04L70.22,30.04L70.22,19.08L70.89,19.08Z"/>
	<path class="st1" d="M88.52,24.21L89.8,24.21L89.8,8.2L91.8,8.2L91.8,6.93L88.52,6.93Z"/>
	<path class="st1" d="M96.06,3.99C96.24,4.35 96.35,4.76 96.35,5.2L96.35,25.98C96.35,27.48 95.07,28.76 93.57,28.76L86.79,28.76C86.35,28.76 85.95,28.65 85.58,28.47C86.03,29.38 86.97,30.03 88.06,30.03L94.84,30.03C96.34,30.03 97.62,28.76 97.62,27.25L97.62,6.47C97.63,5.38 96.97,4.44 96.06,3.99"/>
	<path class="st1" d="M108.7,24.21L109.97,24.21L109.97,8.2L111.97,8.2L111.97,6.93L108.7,6.93Z"/>
	<path class="st1" d="M116.23,3.99C116.42,4.35 116.53,4.76 116.53,5.2L116.53,25.98C116.53,27.48 115.25,28.76 113.74,28.76L105.46,28.76L105.46,30.03L115.02,30.03C116.52,30.03 117.8,28.76 117.8,27.25L117.8,6.47C117.8,5.38 117.15,4.44 116.23,3.99"/>
	<path class="st1" d="M129.1,3.69L129.1,28.76L125.86,28.76L125.86,30.03L130.37,30.03L130.37,3.69Z"/>
	<path class="st1" d="M149.2,3.69L149.2,28.76L145.59,28.76L145.96,30.03L150.47,30.03L150.47,3.69Z"/>
	<path class="st1" d="M141.37,17.24L141.37,28.76L138.13,28.76L138.13,30.03L142.64,30.03L142.64,21.67Z"/>
	<path class="st1" d="M161.09,19.08L164.82,19.08L164.82,17.81L159.82,17.81C159.37,17.81 158.96,17.7 158.59,17.52C159.05,18.44 159.99,19.08 161.09,19.08"/>
	<path class="st1" d="M162.82,20.77L161.55,21.07L161.55,24.21L162.82,24.21Z"/>
	<path class="st1" d="M169.08,3.99C169.26,4.35 169.38,4.76 169.38,5.2L169.38,10.54L166.09,11.3L166.09,12.87L170.65,11.82L170.65,6.47C170.65,5.38 170,4.44 169.08,3.99"/>
	<path class="st1" d="M169.08,14.86C169.26,15.23 169.38,15.64 169.38,16.08L169.38,25.98C169.38,27.48 168.1,28.76 166.59,28.76L159.82,28.76C159.38,28.76 158.97,28.65 158.6,28.47C159.06,29.38 159.99,30.03 161.09,30.03L167.86,30.03C169.37,30.03 170.65,28.76 170.65,27.25L170.65,17.35C170.65,16.25 170,15.32 169.08,14.86"/>
	<path class="st1" d="M161.55,6.93L161.55,13.29L162.82,13.29L162.82,8.2L164.82,8.2L164.82,6.93Z"/>
	<path class="st1" d="M182.14,17.81L181.72,17.81L181.72,28.76L178.48,28.76L178.48,30.04L183,30.04L183,20.55Z"/>
	<path class="st1" d="M191.39,3.69L189.71,3.69L185.9,15.55L190.12,28.76L186.45,28.76L186.8,29.88L186.84,30.03L191.39,30.03L187.17,16.82Z"/>
	<path class="st1" d="M202.01,3.69L202.01,28.76L198.77,28.76L198.77,30.03L203.28,30.03L203.28,3.69Z"/>
	<path class="st1" d="M221.04,19.08L224.53,15.59L225.81,16.86L222.31,20.36Z"/>
	<path class="st1" d="M5.91,19.08L9.4,15.59L10.68,16.86L7.18,20.35Z"/>
	<path class="st0" d="M26.18 15.39L29.45 15.39L29.45 21.79L26.18 21.79ZM26.18 4.51L29.45 4.51L29.45 10.87L26.18 10.87ZM34.01,10.53C34.01,11.4 33.63,12.15 32.99,12.68C33.56,13.28 34.01,13.96 34.01,14.94L34.01,23.56C34.01,25.06 32.73,26.34 31.22,26.34L21.66,26.34L21.66,0L31.22,0C32.73,0 34.01,1.24 34.01,2.78Z"/>
	<path class="st0" d="M46.35 4.51L49.63 4.51L49.63 21.79L46.35 21.79ZM51.4,0C52.9,0 54.18,1.24 54.18,2.78L54.18,23.56C54.18,25.06 52.9,26.34 51.4,26.34L44.62,26.34C43.08,26.34 41.84,25.06 41.84,23.56L41.84,2.78C41.84,1.24 43.08,0 44.62,0Z"/>
	<path class="st0" d="M66.53 4.51L69.8 4.51L69.8 10.87L66.53 10.87ZM70.11,26.34L68.26,15.39L66.53,15.39L66.53,26.34L62.01,26.34L62.01,0L71.57,0C73.08,0 74.32,1.24 74.32,2.78L74.32,12.64C74.32,13.7 73.72,14.67 72.74,15.13L74.62,26.34Z"/>
	<path class="st0" d="M86.1 4.51L89.38 4.51L89.38 21.79L86.1 21.79ZM91.15,0C92.65,0 93.93,1.24 93.93,2.78L93.93,23.56C93.93,25.06 92.65,26.34 91.15,26.34L84.37,26.34C82.83,26.34 81.59,25.06 81.59,23.56L81.59,2.78C81.59,1.24 82.83,0 84.37,0Z"/>
	<path class="st0" d="M106.28 4.51L109.55 4.51L109.55 21.79L106.28 21.79ZM111.32,0C112.83,0 114.11,1.24 114.11,2.78L114.11,23.56C114.11,25.06 112.83,26.34 111.32,26.34L101.76,26.34L101.76,0Z"/>
	<path class="st0" d="M122.16 0L126.68 0L126.68 26.34L122.16 26.34Z"/>
	<path class="st0" d="M146.78,0L146.78,26.34L142.26,26.34L138.95,14.82L138.95,26.34L134.43,26.34L134.43,0L138.91,0L142.23,10.8L142.23,0Z"/>
	<path class="st0" d="M164.17,10.87C165.68,10.87 166.96,12.11 166.96,13.66L166.96,23.56C166.96,25.06 165.68,26.34 164.17,26.34L157.4,26.34C155.85,26.34 154.61,25.06 154.61,23.56L154.61,18.14L159.13,17.08L159.13,21.79L162.4,21.79L162.4,15.39L157.4,15.39C155.85,15.39 154.61,14.15 154.61,12.6L154.61,2.78C154.61,1.24 155.85,0 157.4,0L164.17,0C165.67,0 166.96,1.24 166.96,2.78L166.96,8.13L162.4,9.18L162.4,4.51L159.13,4.51L159.13,10.87Z"/>
	<path class="st0" d="M183.48,13.13L187.7,26.34L183.14,26.34L183.1,26.19L179.72,15.39L179.3,15.39L179.3,26.34L174.79,26.34L174.79,0L179.3,0L179.3,10.87L179.64,10.87L183.1,0L187.7,0Z"/>
	<path class="st0" d="M195.08 0L199.59 0L199.59 26.34L195.08 26.34Z"/>
</svg>